<?xml version="1.0" encoding="UTF-8"?>
<svg version="1.1" xmlns="http://www.w3.org/2000/svg" width="737" height="600">
<path d="M0 0 C5.82071622 -0.02464638 11.64140234 -0.0428343 17.4621582 -0.05493164 C19.44393441 -0.05997267 21.42570689 -0.06680538 23.4074707 -0.07543945 C26.24952109 -0.08751515 29.09152247 -0.09323045 31.93359375 -0.09765625 C32.82525742 -0.10281754 33.71692108 -0.10797882 34.63560486 -0.11329651 C36.75740601 -0.11349177 38.8791078 -0.0621003 41 0 C42.90628906 1.90628906 42.12784968 5.3153361 42.12939453 7.83959961 C42.13114685 8.5552005 42.13289917 9.27080139 42.13470459 10.00808716 C42.1391282 12.38953026 42.13618058 14.7708998 42.1328125 17.15234375 C42.13348606 18.80847691 42.13445653 20.46460998 42.13571167 22.1207428 C42.13718987 25.60369807 42.13503266 29.08662777 42.13037109 32.56958008 C42.12471359 37.01112154 42.12792654 41.45260204 42.13394356 45.8941412 C42.13758011 49.32160388 42.13639576 52.74905244 42.13381577 56.17651558 C42.13315295 57.81220062 42.13395214 59.44788698 42.13629532 61.08357048 C42.14563522 69.44750661 42.04401855 77.68569337 41 86 C41.9578436 85.0421564 42.88980506 84.05863971 43.8203125 83.07421875 C52.8783033 73.69382489 61.63137715 69.09860661 75 68.625 C83.06114385 68.91104059 91.84398149 70.5597976 98 76 C108.92102886 88.5672986 111.60197316 102.33760155 111.57763672 118.67456055 C111.58968863 120.06929508 111.60342841 121.46401586 111.61869812 122.85871887 C111.65465454 126.5935643 111.66668 130.32811594 111.67336798 134.06311393 C111.68404901 137.99038805 111.71554862 141.91750405 111.74417114 145.84468079 C111.7890548 152.42337417 111.81891431 159.00199677 111.83886719 165.58081055 C111.86204063 173.18212375 111.90615143 180.78309005 111.96193302 188.38422936 C112.0155622 195.72101953 112.05762703 203.0578257 112.09332657 210.39472389 C112.1084985 213.50909063 112.12715751 216.62340748 112.14852524 219.73773766 C112.17288241 223.39615513 112.18693407 227.05447289 112.19298744 230.71296501 C112.19857731 232.69448687 112.21405575 234.67597309 112.22981262 236.65744019 C112.22969681 237.83607132 112.22958099 239.01470245 112.22946167 240.22904968 C112.23348433 241.25303706 112.23750698 242.27702444 112.24165154 243.33204174 C112 246 112 246 110 250 C96.47 250 82.94 250 69 250 C68.23124725 246.15623623 67.88064633 243.27920733 67.89993286 239.44805908 C67.90437408 237.79125626 67.90437408 237.79125626 67.90890503 236.10098267 C67.91721344 234.89880096 67.92552185 233.69661926 67.93408203 232.45800781 C67.94125514 230.50273263 67.94842413 228.54745744 67.95543838 226.59218168 C67.96382926 224.49496704 67.97462355 222.39777589 67.98596573 220.30057526 C68.00909081 215.9206727 68.02235165 211.54077466 68.03366089 207.16082764 C68.06704126 194.70741937 68.10861505 182.25407854 68.17138672 169.80078125 C68.20599132 162.91912835 68.22974747 156.03752556 68.24159515 149.15579486 C68.248344 145.51863366 68.26071162 141.88168525 68.28662491 138.24460602 C68.3155636 134.18286617 68.32100211 130.12141164 68.32470703 126.05957031 C68.3370639 124.86548553 68.34942078 123.67140076 68.3621521 122.44113159 C68.34452616 115.09939775 67.98744592 107.90666005 63.375 101.875 C59.48851563 100.44313734 55.96079222 100.97542007 52 102 C48.6330885 103.74348693 48.6330885 103.74348693 46 106 C45.45894434 106.4219055 44.91788868 106.843811 44.36043739 107.27850151 C42.41044157 109.74602768 42.61804958 111.54746131 42.60800171 114.66897583 C42.59690872 115.84963623 42.58581573 117.03029663 42.5743866 118.24673462 C42.57739273 119.54348114 42.58039886 120.84022766 42.58349609 122.17626953 C42.57611771 123.55438986 42.56741322 124.93250363 42.55747986 126.31060791 C42.53412954 130.05421363 42.52900597 133.79765364 42.52682066 137.54132318 C42.52116729 141.45402769 42.49790013 145.36662359 42.47622681 149.27926636 C42.43767967 156.69052248 42.41347489 164.1017476 42.39510214 171.51307857 C42.36170488 184.79655649 42.30407444 198.07994174 42.24111044 211.36330879 C42.21956589 216.02868637 42.20432661 220.69403163 42.19427085 225.35944772 C42.18727448 228.25483497 42.17639764 231.15019899 42.16462898 234.04557037 C42.15786433 236.0384791 42.1561532 238.03140294 42.15455627 240.02432251 C42.14910294 241.19934326 42.1436496 242.37436401 42.13803101 243.58499146 C42.13547491 244.61258135 42.13291882 245.64017124 42.13028526 246.69890022 C42 249 42 249 41 250 C38.0546443 250.10110353 35.1332244 250.13969279 32.1875 250.1328125 C30.86141724 250.13424759 30.86141724 250.13424759 29.50854492 250.13571167 C27.63557871 250.13639351 25.76261014 250.13453893 23.88964844 250.13037109 C21.01231612 250.12502289 18.13513992 250.13031593 15.2578125 250.13671875 C13.44270799 250.13605797 11.62760357 250.13477681 9.8125 250.1328125 C8.94584717 250.13483673 8.07919434 250.13686096 7.1862793 250.13894653 C1.11495009 250.11495009 1.11495009 250.11495009 0 249 C-0.09631159 247.66558457 -0.1237198 246.32611329 -0.12304783 244.98822689 C-0.12503888 244.11887034 -0.12702993 243.2495138 -0.12908131 242.35381311 C-0.12616847 241.38787983 -0.12325563 240.42194654 -0.12025452 239.42674255 C-0.12110894 238.40908359 -0.12196337 237.39142463 -0.12284368 236.34292752 C-0.12450155 232.9049518 -0.11897212 229.46702401 -0.11352539 226.02905273 C-0.11324356 223.57573447 -0.11340117 221.12241612 -0.1139679 218.6690979 C-0.11419622 213.37288729 -0.11134482 208.07669182 -0.10573006 202.78048515 C-0.09761723 195.12297707 -0.09500006 187.46547494 -0.09374207 179.80796302 C-0.0915512 167.38539971 -0.08489019 154.96284295 -0.07543945 142.5402832 C-0.06626622 130.46997104 -0.05918495 118.39966065 -0.05493164 106.3293457 C-0.05466892 105.58584653 -0.05440619 104.84234735 -0.05413551 104.0763179 C-0.05283051 100.3465548 -0.05156679 96.61679169 -0.05032361 92.88702857 C-0.03994993 61.92468095 -0.02225656 30.96234147 0 0 Z " fill="#FCFCFC" transform="translate(168,31)"/>
<path d="M0 0 C6.9798392 6.62094676 11.90269569 15.82465228 14.203125 25.08984375 C14.37956543 25.7461377 14.55600586 26.40243164 14.73779297 27.07861328 C16.2558786 33.1552321 16.47215101 38.9091679 16.390625 45.15234375 C16.3896582 46.56483398 16.3896582 46.56483398 16.38867188 48.00585938 C16.29477416 62.99819459 16.29477416 62.99819459 14.203125 65.08984375 C12.22913838 65.3095146 10.24772304 65.46269886 8.265625 65.58984375 C7.01007813 65.67105469 5.75453125 65.75226563 4.4609375 65.8359375 C3.04171214 65.92133214 1.62243846 66.00592629 0.203125 66.08984375 C-0.57063477 66.13641113 -1.34439453 66.18297852 -2.14160156 66.23095703 C-4.54735536 66.37456233 -6.95328441 66.51450122 -9.359375 66.65234375 C-10.12048584 66.69617188 -10.88159668 66.74 -11.66577148 66.78515625 C-15.38057934 66.98986069 -19.07621613 67.14141724 -22.796875 67.08984375 C-23.8536045 62.84654233 -23.83537084 58.80148144 -23.734375 54.46484375 C-23.64363589 44.99340922 -24.04065577 35.0657815 -29.796875 27.08984375 C-32.86484694 24.19527892 -34.99249187 23.67972288 -39.171875 23.71484375 C-44.56250721 23.87296896 -48.54587718 24.71069506 -52.375 28.7578125 C-57.50320016 37.1686243 -56.31467805 50.59960618 -54.16015625 59.8125 C-52.89867284 64.34449594 -51.3934358 68.13317968 -48.796875 72.08984375 C-48.796875 72.74984375 -48.796875 73.40984375 -48.796875 74.08984375 C-48.136875 74.08984375 -47.476875 74.08984375 -46.796875 74.08984375 C-45.24609375 75.62890625 -45.24609375 75.62890625 -43.484375 77.71484375 C-42.85402344 78.45089844 -42.22367188 79.18695313 -41.57421875 79.9453125 C-40.19497383 81.60950033 -38.86119877 83.31142105 -37.546875 85.02734375 C-34.39211625 88.87155308 -30.37418297 91.76421911 -26.51171875 94.859375 C-21.82355716 98.71108761 -17.73224435 102.92997421 -13.859375 107.58984375 C-11.68277546 110.19015467 -9.38040465 112.39359843 -6.796875 114.58984375 C6.68813616 126.18848284 16.85360534 143.38053914 19.203125 161.08984375 C19.46321602 165.5024224 19.5332569 169.89993868 19.51879883 174.31982422 C19.51565202 176.32264649 19.53993458 178.32545034 19.56445312 180.328125 C19.57019201 191.97807147 18.27426941 203.21595391 12.828125 213.65234375 C12.26351562 214.76738281 11.69890625 215.88242187 11.1171875 217.03125 C9.11713806 220.22724737 6.96484945 222.53720885 4.203125 225.08984375 C3.64109375 225.63769531 3.0790625 226.18554688 2.5 226.75 C-4.99454504 233.54429715 -12.98532874 235.60761818 -22.796875 237.08984375 C-23.76109375 237.28707031 -24.7253125 237.48429688 -25.71875 237.6875 C-43.71062251 241.13518115 -63.10400375 238.81719798 -78.796875 229.08984375 C-87.45895581 222.73765116 -93.03687915 212.13374017 -95.234375 201.71484375 C-96.6815032 190.13781813 -97.25637114 176.54125779 -94.796875 165.08984375 C-90.91926997 163.82963776 -87.03390273 163.94570003 -83.00390625 163.95703125 C-82.25727219 163.95607452 -81.51063812 163.9551178 -80.74137878 163.95413208 C-79.16881221 163.95345331 -77.59624279 163.95528646 -76.02368164 163.95947266 C-73.60752144 163.96484787 -71.19154523 163.95950591 -68.77539062 163.953125 C-67.24739542 163.95378539 -65.71940033 163.95506574 -64.19140625 163.95703125 C-63.46540726 163.95500702 -62.73940826 163.95298279 -61.9914093 163.95089722 C-56.91184198 163.97487677 -56.91184198 163.97487677 -55.796875 165.08984375 C-55.66387604 166.54441465 -55.59352808 168.00483076 -55.55078125 169.46484375 C-55.51791016 170.36847656 -55.48503906 171.27210938 -55.45117188 172.203125 C-55.39097057 174.09626388 -55.33358081 175.98949471 -55.27929688 177.8828125 C-55.00052773 185.34120218 -54.61417055 193.10538783 -50.421875 199.52734375 C-49.82246094 200.48447266 -49.82246094 200.48447266 -49.2109375 201.4609375 C-46.93332375 204.08459753 -44.81784845 204.96201455 -41.39453125 205.390625 C-36.28682426 205.41423536 -33.0270615 205.26248363 -28.796875 202.08984375 C-28.136875 202.08984375 -27.476875 202.08984375 -26.796875 202.08984375 C-26.508125 201.34734375 -26.219375 200.60484375 -25.921875 199.83984375 C-24.796875 197.08984375 -24.796875 197.08984375 -23.75195312 195.22387695 C-19.97997833 186.79575023 -21.55783405 172.21483995 -24.54125977 163.67260742 C-28.41454841 154.27784884 -34.34274395 145.97058011 -41.796875 139.08984375 C-42.90326099 137.96702628 -44.00722371 136.84181827 -45.109375 135.71484375 C-48.12311741 132.70110134 -51.26479295 129.89096213 -54.4921875 127.109375 C-57.86115948 124.15724193 -61.14487252 121.11311226 -64.43310547 118.07177734 C-67.0966759 115.61654978 -69.79288844 113.24213807 -72.609375 110.96484375 C-76.66478064 107.5409368 -79.6699483 103.34698492 -82.796875 99.08984375 C-83.23902344 98.53683594 -83.68117188 97.98382813 -84.13671875 97.4140625 C-98.4522904 78.98219229 -98.79374321 53.62037513 -96.046875 31.40234375 C-94.42550227 21.88803848 -91.12744584 14.37293104 -84.796875 7.08984375 C-84.19875 6.39761719 -83.600625 5.70539062 -82.984375 4.9921875 C-64.29224824 -15.1696831 -21.79260458 -15.40376547 0 0 Z " fill="#FAFAFA" transform="translate(138.796875,45.91015625)"/>
<path d="M0 0 C2.00200693 2.07076272 2.57551968 3.18566349 2.93359375 6 C3.59359375 6 4.25359375 6 4.93359375 6 C18.83635636 27.83029533 18.41748038 53.60387425 18.25616455 78.51812744 C18.24273373 81.32793592 18.24801002 84.13758631 18.25300694 86.94741249 C18.30435766 124.6021027 18.30435766 124.6021027 12.87109375 139.375 C12.56872803 140.21369629 12.2663623 141.05239258 11.95483398 141.91650391 C9.17398746 149.16960348 5.61170301 154.60876385 -0.06640625 160 C-0.70320313 160.60972656 -1.34 161.21945312 -1.99609375 161.84765625 C-12.25903489 170.51366672 -28.27581958 172.57649967 -41.30859375 172.25390625 C-55.43890123 170.95295726 -70.30578504 168.05405808 -79.94140625 156.8125 C-86.89380377 147.46272403 -90.49040758 137.4472344 -92.06640625 126 C-92.23406494 124.90888916 -92.40172363 123.81777832 -92.57446289 122.69360352 C-94.31695514 110.08293128 -94.37087219 97.55065392 -94.32714844 84.83544922 C-94.31644629 81.13882977 -94.32708838 77.44269833 -94.33984375 73.74609375 C-94.37154458 24.91862842 -94.37154458 24.91862842 -80.06640625 6 C-79.64488281 5.40960938 -79.22335937 4.81921875 -78.7890625 4.2109375 C-71.74929573 -5.03320068 -61.82868369 -9.48722471 -50.59863281 -11.08642578 C-32.07163187 -13.30741109 -14.88085443 -11.88611149 0 0 Z M-45.06640625 21 C-53.02066744 31.58758316 -51.37903555 47.74081445 -51.3671875 60.3125 C-51.37108632 62.0563975 -51.37542338 63.80029406 -51.38017273 65.54418945 C-51.38758395 69.17825415 -51.38738032 72.81222159 -51.38208008 76.44628906 C-51.37628169 81.06892678 -51.39325037 85.69116432 -51.41642475 90.31373596 C-51.43125773 93.90859241 -51.43202106 97.50335445 -51.42891502 101.09823608 C-51.42942309 102.80122675 -51.43456234 104.50422343 -51.44472694 106.20718384 C-51.92718971 123.28659056 -51.92718971 123.28659056 -45.75390625 138.6875 C-42.77629438 141.24963114 -40.9635309 142.44326791 -37.06640625 143 C-33.54694917 142.13809214 -31.76645024 140.9758189 -29.6484375 138.0234375 C-23.14189085 126.30783737 -23.75263805 112.61866206 -23.765625 99.59765625 C-23.76172491 97.94583532 -23.75738761 96.29401537 -23.75263977 94.64219666 C-23.74523166 91.20064016 -23.74542956 87.75918636 -23.75073242 84.31762695 C-23.75652618 79.94618328 -23.73957178 75.57516344 -23.71638775 71.20378971 C-23.70153204 67.79847328 -23.70079454 64.39325624 -23.70389748 60.98791313 C-23.7033904 59.37785438 -23.69827062 57.76778914 -23.68808556 56.15776253 C-23.32796556 36.62285214 -23.32796556 36.62285214 -32.06640625 20 C-37.51833049 17.54128907 -40.26903985 17.34486369 -45.06640625 21 Z " fill="#FCFBFB" transform="translate(386.06640625,112)"/>
<path d="M0 0 C2.20733159 2.20733159 3.09380667 4.03427639 4 7 C4.66 7 5.32 7 6 7 C6.80229137 8.49434423 7.59121867 9.99586472 8.375 11.5 C8.81585937 12.3353125 9.25671875 13.170625 9.7109375 14.03125 C12.7831158 21.10656972 13.38851954 27.94665225 13.6875 35.5625 C13.73455078 36.46935547 13.78160156 37.37621094 13.83007812 38.31054688 C14.05341487 43.35942176 13.99276191 48.03619043 13 53 C11.25848262 54.74151738 8.833696 54.2327289 6.4609375 54.31640625 C5.32269531 54.35830078 4.18445313 54.40019531 3.01171875 54.44335938 C1.81160156 54.48267578 0.61148438 54.52199219 -0.625 54.5625 C-1.80191406 54.60568359 -2.97882813 54.64886719 -4.19140625 54.69335938 C-16.77477266 55.13922669 -16.77477266 55.13922669 -21 55 C-22.87750781 53.12249219 -22.22289783 49.75886079 -22.3125 47.25 C-22.93391729 34.65147372 -22.93391729 34.65147372 -28.93359375 24.1953125 C-32.55439546 22.10086009 -36.00866706 21.62296454 -40.125 22.40234375 C-43.85219081 23.56023942 -45.63042916 24.50338919 -48 27.6875 C-50.12461675 34.725293 -49.35018578 39.53892742 -46 46 C-39.4507612 57.64309121 -25.79579468 65.57348608 -15.125 73.25 C-7.82813005 78.53758692 -1.72975946 84.02923273 4 91 C4.53882813 91.639375 5.07765625 92.27875 5.6328125 92.9375 C14.11149944 103.50390382 15.18485414 114.6611805 15.25 127.8125 C15.270625 128.84181641 15.29125 129.87113281 15.3125 130.93164062 C15.36493589 141.29428296 13.10371024 149.59862872 7 158 C6.59265625 158.60714844 6.1853125 159.21429688 5.765625 159.83984375 C-1.41286032 169.48857255 -14.27883506 172.67625175 -25.625 174.3984375 C-28.08527669 174.68290699 -30.52717031 174.86731158 -33 175 C-34.11181641 175.07927734 -34.11181641 175.07927734 -35.24609375 175.16015625 C-49.58221691 175.71619475 -64.76632533 172.4213721 -75.9375 163.1875 C-79.79143661 159.54002428 -82.104306 155.92094661 -84 151 C-84.33644531 150.28328125 -84.67289063 149.5665625 -85.01953125 148.828125 C-86.37671459 144.91338102 -86.81615869 141.04601772 -87.25 136.9375 C-87.34007324 136.09856201 -87.43014648 135.25962402 -87.52294922 134.39526367 C-88.14324357 127.67712762 -87.70138898 121.55689138 -86 115 C-81.58874098 114.12773374 -77.5591877 113.94233323 -73.0703125 114.12109375 C-71.78125 114.16943359 -70.4921875 114.21777344 -69.1640625 114.26757812 C-67.81770275 114.32408592 -66.47134864 114.38072821 -65.125 114.4375 C-63.75522999 114.49079403 -62.3854383 114.54353378 -61.015625 114.59570312 C-57.67682977 114.72502266 -54.33836059 114.85997555 -51 115 C-50.91363281 116.03898437 -50.82726562 117.07796875 -50.73828125 118.1484375 C-49.85153535 127.41977197 -48.92962144 136.4700776 -41.6875 143.125 C-36.62748005 144.77244836 -32.6194869 144.55001442 -27.6875 142.875 C-24.2964496 140.50915088 -23.30808603 138.92425808 -22 135 C-21.20033938 129.58007802 -21.71460482 125.45451825 -24.63671875 120.80078125 C-28.52999659 115.65808473 -32.31918489 111.6854835 -37.5 107.875 C-38.61489367 107.03947644 -39.72948136 106.20354443 -40.84375 105.3671875 C-42.40609375 104.19542969 -42.40609375 104.19542969 -44 103 C-45.67077235 101.67181504 -47.33735846 100.33834923 -49 99 C-50.10027051 98.13637229 -51.20193094 97.27451354 -52.3046875 96.4140625 C-55.34855182 94.03876577 -58.38243704 91.65121127 -61.41015625 89.25537109 C-62.66473277 88.26473343 -63.92508343 87.28140841 -65.1875 86.30078125 C-75.59561059 77.89237709 -83.91855142 65.34323729 -86 52 C-86.32764601 47.41368556 -86.37012025 42.84672792 -86.375 38.25 C-86.39949219 37.05117187 -86.42398438 35.85234375 -86.44921875 34.6171875 C-86.48935232 22.28280367 -83.72422172 11.98335702 -75 3 C-56.54543733 -14.58241887 -20.31862402 -13.54574934 0 0 Z " fill="#F9F9F9" transform="translate(677,110)"/>
<path d="M0 0 C10.23 0 20.46 0 31 0 C31.70901421 3.54507103 32.12358895 6.11463325 32.11352539 9.60668945 C32.11344986 10.48722488 32.11337433 11.36776031 32.11329651 12.27497864 C32.10813522 13.2116185 32.10297394 14.14825836 32.09765625 15.11328125 C32.0962413 16.08283249 32.09482635 17.05238373 32.09336853 18.05131531 C32.08778513 21.13840867 32.07523564 24.22542867 32.0625 27.3125 C32.05748286 29.40950416 32.05292032 31.50650946 32.04882812 33.60351562 C32.03782112 38.73570521 32.02056788 43.86784018 32 49 C33.17357056 49.03758423 33.17357056 49.03758423 34.37084961 49.07592773 C37.89324949 49.19149788 41.4153556 49.31439949 44.9375 49.4375 C46.16919922 49.47681641 47.40089844 49.51613281 48.66992188 49.55664062 C49.83974609 49.59853516 51.00957031 49.64042969 52.21484375 49.68359375 C53.29886475 49.72025146 54.38288574 49.75690918 55.49975586 49.79467773 C58 50 58 50 59 51 C59.1007812 53.36398468 59.13973215 55.69811311 59.1328125 58.0625 C59.13376923 58.76898682 59.13472595 59.47547363 59.13571167 60.20336914 C59.13639333 61.69970793 59.13454005 63.19604967 59.13037109 64.69238281 C59.12502257 66.99030157 59.13031651 69.28802486 59.13671875 71.5859375 C59.13605797 73.03645877 59.1347768 74.48697991 59.1328125 75.9375 C59.13483673 76.6291626 59.13686096 77.3208252 59.13894653 78.03344727 C59.11495224 82.88504776 59.11495224 82.88504776 58 84 C56.14630389 84.08737645 54.28932459 84.10698153 52.43359375 84.09765625 C51.30888672 84.09443359 50.18417969 84.09121094 49.02539062 84.08789062 C47.84138672 84.07951172 46.65738281 84.07113281 45.4375 84.0625 C44.24962891 84.05798828 43.06175781 84.05347656 41.83789062 84.04882812 C38.89187774 84.03699675 35.94596319 84.02051287 33 84 C33.08459047 96.71811874 33.17954587 109.4361146 33.28752708 122.1540575 C33.33735239 128.06028228 33.38368322 133.96649036 33.421875 139.87280273 C33.45890219 145.5787354 33.50530848 151.28452349 33.55806351 156.99033165 C33.57651516 159.16105282 33.5916567 161.33180488 33.60334396 163.50257301 C33.62036529 166.5563075 33.64943695 169.60971748 33.68115234 172.66333008 C33.68331253 173.54950516 33.68547272 174.43568024 33.68769836 175.34870911 C33.77630406 182.08034399 33.94209974 189.88419948 37 196 C42.74450622 197.53186833 47.65549301 196.53340166 53.42578125 195.375 C56 195 56 195 58 196 C60.65823197 204.80141877 61.55939029 213.85355022 62 223 C48.39026789 228.85303719 34.82075046 230.61288818 20 230 C19.25234375 229.97164062 18.5046875 229.94328125 17.734375 229.9140625 C10.33223269 229.38533805 4.64498181 227.14160812 -0.375 221.5625 C-10.63692789 209.20805608 -7.26004033 186.44539984 -7.1953125 171.59765625 C-7.19157557 169.06318779 -7.18873181 166.52871787 -7.18673706 163.99424744 C-7.17992586 158.04483064 -7.16422337 152.09548103 -7.14403808 146.14609855 C-7.12153113 139.36233542 -7.1106488 132.57856833 -7.10064721 125.79477704 C-7.07985183 111.8631421 -7.04435703 97.93157808 -7 84 C-11.62 84 -16.24 84 -21 84 C-21.02465288 79.31860746 -21.04283739 74.63725241 -21.05493164 69.95581055 C-21.05997157 68.36205386 -21.0668035 66.76830181 -21.07543945 65.17456055 C-21.08751999 62.88849747 -21.09323155 60.60249533 -21.09765625 58.31640625 C-21.10281754 57.59973282 -21.10797882 56.88305939 -21.11329651 56.14466858 C-21.11349263 54.42936328 -21.06192007 52.71418734 -21 51 C-20 50 -20 50 -16.62109375 49.90234375 C-15.22652923 49.90901631 -13.83198257 49.92097468 -12.4375 49.9375 C-11.72658203 49.94201172 -11.01566406 49.94652344 -10.28320312 49.95117188 C-8.52209987 49.96299136 -6.76103964 49.98092737 -5 50 C-5.01732178 48.69716064 -5.03464355 47.39432129 -5.05249023 46.05200195 C-5.05060686 41.37559026 -4.68221905 36.81150121 -4.16015625 32.16796875 C-4.07374374 31.36893631 -3.98733124 30.56990387 -3.89830017 29.74665833 C-3.71648349 28.07507568 -3.53234237 26.40374432 -3.34594727 24.73266602 C-3.06135306 22.17720128 -2.78501183 19.62093992 -2.50976562 17.06445312 C-2.3312117 15.43223881 -2.15219181 13.80007538 -1.97265625 12.16796875 C-1.89032242 11.40751755 -1.80798859 10.64706635 -1.72315979 9.86357117 C-1.34218324 6.47597533 -0.82902588 3.3161035 0 0 Z " fill="#FBFBFB" transform="translate(522,53)"/>
<path d="M0 0 C1.1810419 3.54312571 0.64405854 5.35928019 0 9 C-0.04362891 10.95784728 -0.03985603 12.91707228 0 14.875 C0.05266214 21.86401774 -0.16109082 28.82904278 -0.4375 35.8125 C-0.47681641 36.89321777 -0.51613281 37.97393555 -0.55664062 39.08740234 C-0.59853516 40.09625488 -0.64042969 41.10510742 -0.68359375 42.14453125 C-0.72025146 43.05565674 -0.75690918 43.96678223 -0.79467773 44.90551758 C-1 47 -1 47 -2 48 C-4.1072545 47.82564799 -6.21106168 47.6092587 -8.3125 47.375 C-17.6558498 46.641628 -26.65088731 47.81127352 -34 54 C-36.16487854 57.24731781 -36.24731267 58.10667344 -36.23377991 61.85154724 C-36.23508408 62.85117493 -36.23638824 63.85080261 -36.23773193 64.88072205 C-36.22897034 65.97638992 -36.22020874 67.0720578 -36.21118164 68.20092773 C-36.20921028 69.93295944 -36.20921028 69.93295944 -36.2071991 71.69998169 C-36.20069278 75.52793478 -36.18025203 79.35568996 -36.16015625 83.18359375 C-36.15388803 85.83773677 -36.14850112 88.49186575 -36.14439392 91.14601135 C-36.13301087 97.42751754 -36.11228442 103.70895216 -36.08749622 109.99041849 C-36.04318788 121.23716118 -36.009973 132.48392855 -35.98725218 143.73073536 C-35.97749228 148.31397528 -35.95871427 152.8971297 -35.93800354 157.48033142 C-35.93117636 159.87677955 -35.92456761 162.27322831 -35.91821289 164.66967773 C-35.91147552 165.76332138 -35.90473816 166.85696503 -35.89779663 167.98374939 C-35.89628098 168.9861969 -35.89476532 169.98864441 -35.89320374 171.02146912 C-35.88968431 171.89143241 -35.88616488 172.7613957 -35.8825388 173.65772152 C-36 176 -36 176 -37 180 C-50.2 180 -63.4 180 -77 180 C-77.72138209 174.95032539 -78.11550083 170.68851445 -78.08229065 165.66639709 C-78.07906152 164.96212867 -78.07583239 164.25786024 -78.07250541 163.53225034 C-78.06051657 161.19079483 -78.04112664 158.84946158 -78.02172852 156.50805664 C-78.01157656 154.82231912 -78.00188389 153.13657879 -77.99261475 151.45083618 C-77.96622553 146.88730766 -77.93342761 142.32384523 -77.89946485 137.76036763 C-77.86503064 132.98646285 -77.83651006 128.2125228 -77.80735779 123.43858337 C-77.75129245 114.40417251 -77.68992138 105.36980582 -77.62663645 96.33544296 C-77.55483071 86.04771505 -77.48895144 75.75995185 -77.42356598 65.47218144 C-77.28896415 44.31474178 -77.14693281 23.15735739 -77 2 C-72.62176083 1.95061851 -68.24366854 1.9142896 -63.86523438 1.89013672 C-62.3752968 1.88006957 -60.88537903 1.86641482 -59.39550781 1.84912109 C-57.25580972 1.82490347 -55.11637247 1.81352436 -52.9765625 1.8046875 C-51.68830566 1.79421387 -50.40004883 1.78374023 -49.07275391 1.77294922 C-46 2 -46 2 -44 4 C-43.60522461 6.50610352 -43.60522461 6.50610352 -43.40234375 9.62890625 C-43.32306641 10.74587891 -43.24378906 11.86285156 -43.16210938 13.01367188 C-43.08798828 14.18478516 -43.01386719 15.35589844 -42.9375 16.5625 C-42.78390579 18.87656818 -42.62656256 21.19039166 -42.46484375 23.50390625 C-42.399021 24.53330322 -42.33319824 25.5627002 -42.26538086 26.62329102 C-42.2556828 28.952408 -42.2556828 28.952408 -41 30 C-40.65388672 29.07380859 -40.65388672 29.07380859 -40.30078125 28.12890625 C-35.79628432 16.4314577 -30.80169168 6.07489627 -18.8359375 0.7109375 C-13.3873792 -1.39892976 -5.47993628 -2.41117196 0 0 Z " fill="#FCFBFB" transform="translate(494,101)"/>
<path d="M0 0 C2 1 2 1 3.05000496 3.86300373 C5.54045491 12.93007937 6.59171867 21.22140311 6.57763672 30.67456055 C6.58968863 32.06929508 6.60342841 33.46401586 6.61869812 34.85871887 C6.65465454 38.5935643 6.66668 42.32811594 6.67336798 46.06311393 C6.68404901 49.99038805 6.71554862 53.91750405 6.74417114 57.84468079 C6.7890548 64.42337417 6.81891431 71.00199677 6.83886719 77.58081055 C6.86204063 85.18212375 6.90615143 92.78309005 6.96193302 100.38422936 C7.0155622 107.72101953 7.05762703 115.0578257 7.09332657 122.39472389 C7.1084985 125.50909063 7.12715751 128.62340748 7.14852524 131.73773766 C7.17288241 135.39615513 7.18693407 139.05447289 7.19298744 142.71296501 C7.19857731 144.69448687 7.21405575 146.67597309 7.22981262 148.65744019 C7.22969681 149.83607132 7.22958099 151.01470245 7.22946167 152.22904968 C7.23348433 153.25303706 7.23750698 154.27702444 7.24165154 155.33204174 C7 158 7 158 5 162 C-8.53 162 -22.06 162 -36 162 C-36 161.67 -36 161.34 -36 161 C-22.8 161 -9.6 161 4 161 C3.91447908 142.24971184 3.82084728 123.4995212 3.71247292 104.74935246 C3.66240875 96.04279896 3.61596524 87.33625459 3.578125 78.62963867 C3.54512381 71.03856682 3.50524798 63.44756708 3.45720994 55.85657495 C3.43202556 51.83937978 3.41022074 47.82223194 3.39665604 43.80497932 C3.38376218 40.01862793 3.36162996 36.23243955 3.33261681 32.44617844 C3.32359797 31.06156497 3.31786421 29.67692529 3.31578636 28.29228401 C3.30059217 19.69996661 2.73032866 12.19098597 0 4 C0 2.68 0 1.36 0 0 Z " fill="#EAE9EA" transform="translate(273,119)"/>
<path d="M0 0 C2 1 2 1 3.05657959 3.31227112 C7.20746714 16.64746754 6.51741416 30.35258293 6.40557575 44.17554927 C6.3802967 47.8349842 6.3781995 51.49443714 6.37347412 55.15394592 C6.36112118 62.05968368 6.32840564 68.96516326 6.28807616 75.87078816 C6.24311679 83.74277544 6.22131114 91.61477611 6.20129442 99.48686016 C6.15966452 115.65805705 6.08946487 131.8289954 6 148 C5.67 148 5.34 148 5 148 C4.99761165 147.37660768 4.99522329 146.75321535 4.99276257 146.11093235 C4.93334749 130.86651561 4.85763124 115.62227159 4.76428509 100.37802982 C4.71952522 93.00569664 4.68006634 85.63340963 4.65356445 78.26098633 C4.63042238 71.82709888 4.59684771 65.39336004 4.55129844 58.95959085 C4.52758191 55.56027415 4.50871336 52.16110263 4.50238609 48.7617054 C4.64390625 26.08411847 4.64390625 26.08411847 0 4 C0 2.68 0 1.36 0 0 Z " fill="#DCDBDC" transform="translate(273,119)"/>
<path d="M0 0 C0.33 0 0.66 0 1 0 C1.02317774 10.08357856 1.04094282 20.16715076 1.05181217 30.25075054 C1.0570291 34.93304575 1.06410517 39.61532271 1.07543945 44.29760742 C1.08631058 48.81687919 1.09228581 53.33613342 1.09487724 57.85541725 C1.09672386 59.57897022 1.10032983 61.30252224 1.10573006 63.02606773 C1.11299654 65.4414718 1.11398857 67.85680355 1.11352539 70.2722168 C1.11712067 70.98359802 1.12071594 71.69497925 1.12442017 72.42791748 C1.1168509 76.07954708 0.86780493 79.44885828 0 83 C-0.33 83 -0.66 83 -1 83 C-1.8630028 75.06271285 -2.16002455 67.21918371 -2.16796875 59.23828125 C-2.17129715 58.04881393 -2.17462555 56.85934662 -2.17805481 55.63383484 C-2.18308925 53.13032413 -2.18546422 50.62680678 -2.18530273 48.12329102 C-2.18748383 44.34054213 -2.20566267 40.55808789 -2.22460938 36.77539062 C-2.25250385 24.3660255 -2.10825119 12.2541354 0 0 Z " fill="#A5A3A3" transform="translate(294,149)"/>
<path d="M0 0 C0.33 0 0.66 0 1 0 C1 28.71 1 57.42 1 87 C0.01 87.495 0.01 87.495 -1 88 C-2.51254195 84.9749161 -2.14731963 81.84273097 -2.14526367 78.52441406 C-2.14862228 77.75347412 -2.1519809 76.98253418 -2.15544128 76.18823242 C-2.16496662 73.63068036 -2.16689544 71.07319371 -2.16796875 68.515625 C-2.17118114 66.73923719 -2.1745452 64.96284965 -2.17805481 63.1864624 C-2.18405067 59.45730985 -2.18589433 55.72818048 -2.18530273 51.99902344 C-2.18520129 47.22638013 -2.19883285 42.45388619 -2.21607494 37.68127823 C-2.22721054 34.00949423 -2.22922143 30.33774611 -2.22869301 26.66594696 C-2.22987156 24.90693397 -2.23428637 23.14792001 -2.24202538 21.38892365 C-2.2518531 18.92356527 -2.24893588 16.45852791 -2.24291992 13.99316406 C-2.24853943 13.26981873 -2.25415894 12.54647339 -2.25994873 11.8012085 C-2.23332728 7.49498843 -1.57741038 4.00500589 0 0 Z " fill="#EEEEEE" transform="translate(335,146)"/>
<path d="M0 0 C0.33 0 0.66 0 1 0 C1.02326234 8.05873977 1.04098548 16.11746529 1.05181217 24.17623043 C1.05701078 27.91901277 1.06405297 31.66177198 1.07543945 35.40454102 C1.08637646 39.02257576 1.09229955 42.64058837 1.09487724 46.25863838 C1.09671213 47.63279124 1.10029485 49.00694301 1.10573006 50.38108635 C1.1334032 57.67346532 0.99624224 64.77121115 0 72 C-0.33 72 -0.66 72 -1 72 C-2.20443716 59.61585035 -1.99209923 47.31651703 -1.703125 34.890625 C-1.62452278 31.4792885 -1.55764511 28.06786155 -1.4921875 24.65625 C-1.44599917 22.46873539 -1.39914801 20.28123466 -1.3515625 18.09375 C-1.33171295 17.08324585 -1.3118634 16.0727417 -1.29141235 15.03161621 C-1.16737844 9.93549882 -0.85619055 5.02694923 0 0 Z " fill="#E9E8E8" transform="translate(403,161)"/>
<path d="M0 0 C0.66 0.33 1.32 0.66 2 1 C1.01 1.33 0.02 1.66 -1 2 C-1 2.66 -1 3.32 -1 4 C-3.3125 5.6875 -3.3125 5.6875 -6 7 C-6.99 6.67 -7.98 6.34 -9 6 C-9.22945313 6.556875 -9.45890625 7.11375 -9.6953125 7.6875 C-11.35693159 10.63264521 -13.45370901 12.64337256 -15.875 15 C-16.73867188 15.845625 -17.60234375 16.69125 -18.4921875 17.5625 C-19.73355469 18.7690625 -19.73355469 18.7690625 -21 20 C-22.33557989 21.33108299 -23.66976383 22.66357668 -25 24 C-21.59907267 14.36403922 -13.92697682 6.70164577 -5.01171875 1.9375 C-3.125 1.0625 -3.125 1.0625 0 0 Z " fill="#C9C9C7" transform="translate(326,103)"/>
<path d="M0 0 C0.33 0 0.66 0 1 0 C1.02887236 3.81248426 1.04675492 7.6249407 1.0625 11.4375 C1.07087891 12.52611328 1.07925781 13.61472656 1.08789062 14.73632812 C1.09272461 16.28803711 1.09272461 16.28803711 1.09765625 17.87109375 C1.10551147 19.30859985 1.10551147 19.30859985 1.11352539 20.77514648 C1 23 1 23 0 24 C-2.14897311 23.88044656 -4.2947956 23.70296877 -6.4375 23.5 C-12.45158255 23.01370264 -18.04028274 23.10741562 -24 24 C-21.55555556 21.09722222 -21.55555556 21.09722222 -19.125 20.671875 C-18.42375 20.69765625 -17.7225 20.7234375 -17 20.75 C-16.21753906 20.77578125 -15.43507813 20.8015625 -14.62890625 20.828125 C-10.07434367 21.12589729 -5.54128851 21.54012268 -1 22 C-0.67 14.74 -0.34 7.48 0 0 Z " fill="#D0CECF" transform="translate(492,125)"/>
<path d="M0 0 C0.33 0 0.66 0 1 0 C1.04254356 1.99954746 1.04080783 4.00041636 1 6 C-0.74633981 7.74633981 -3.19644001 7.23306218 -5.57421875 7.31640625 C-6.71697266 7.35830078 -7.85972656 7.40019531 -9.03710938 7.44335938 C-10.24173828 7.48267578 -11.44636719 7.52199219 -12.6875 7.5625 C-13.87279297 7.60568359 -15.05808594 7.64886719 -16.27929688 7.69335938 C-21.52292965 7.87863636 -26.75260243 8.02306872 -32 8 C-28.55861622 4.79862689 -26.10647726 4.64400258 -21.484375 4.70703125 C-20.23398437 4.71669922 -18.98359375 4.72636719 -17.6953125 4.73632812 C-15.74238281 4.7740332 -15.74238281 4.7740332 -13.75 4.8125 C-12.43257812 4.82603516 -11.11515625 4.83957031 -9.7578125 4.85351562 C-6.50479679 4.88887449 -3.252604 4.93822967 0 5 C0 3.35 0 1.7 0 0 Z " fill="#CAC9C8" transform="translate(689,157)"/>
<path d="M0 0 C2 1 2 1 3.0703125 3.5 C6.80827344 15.90449261 6.39686292 28.14011501 6 41 C5.67 41 5.34 41 5 41 C4.9498877 40.28980713 4.89977539 39.57961426 4.84814453 38.84790039 C4.61400167 35.58556289 4.36957224 32.32407155 4.125 29.0625 C4.04636719 27.94552734 3.96773438 26.82855469 3.88671875 25.67773438 C3.31542802 18.1850367 2.38645388 11.15936164 0 4 C0 2.68 0 1.36 0 0 Z " fill="#B7B7B6" transform="translate(273,119)"/>
<path d="M0 0 C0.66 0 1.32 0 2 0 C3.16552619 4.19589427 3.08954032 4.82091936 1 9 C-12.53 9 -26.06 9 -40 9 C-40 8.67 -40 8.34 -40 8 C-26.8 8 -13.6 8 0 8 C0 5.36 0 2.72 0 0 Z " fill="#CFCFCF" transform="translate(277,272)"/>
<path d="M0 0 C2.31743526 6.36900576 -0.64954671 14.67209726 -3.09375 20.6953125 C-3.99801011 22.49737371 -4.98842995 24.25591371 -6 26 C-6.66 25.01 -7.32 24.02 -8 23 C-7.34 23 -6.68 23 -6 23 C-5.88930176 22.44538086 -5.77860352 21.89076172 -5.66455078 21.31933594 C-5.1572552 18.79499934 -4.64122082 16.27252586 -4.125 13.75 C-3.95097656 12.87730469 -3.77695313 12.00460938 -3.59765625 11.10546875 C-3.42363281 10.26113281 -3.24960938 9.41679687 -3.0703125 8.546875 C-2.91320801 7.77182617 -2.75610352 6.99677734 -2.59423828 6.19824219 C-1.98334239 3.93837914 -1.11589478 2.05193839 0 0 Z " fill="#B3B3B2" transform="translate(157,234)"/>
<path d="M0 0 C4.83681965 4.83681965 5.39266526 13.44078484 6 20 C5.34 20.33 4.68 20.66 4 21 C3.87882813 20.35933594 3.75765625 19.71867187 3.6328125 19.05859375 C2.85243017 15.03062035 2.07281749 11.05213019 0.875 7.125 C0 4 0 4 0 0 Z " fill="#C3C3C3" transform="translate(152,190)"/>
<path d="M0 0 C0.33 0 0.66 0 1 0 C2.70701221 5.89695128 0.95193635 10.41988817 -1 16 C-1.66 16 -2.32 16 -3 16 C-3 11.71 -3 7.42 -3 3 C-2.01 3.495 -2.01 3.495 -1 4 C-0.67 2.68 -0.34 1.36 0 0 Z " fill="#C4C1C1" transform="translate(454,127)"/>
<path d="M0 0 C2.32888606 3.49332909 2.50146441 5.86927651 3 10 C3.185625 10.86625 3.37125 11.7325 3.5625 12.625 C4.02430827 15.13195919 4.07266822 17.45661228 4 20 C1.50524587 17.50524587 1.18018934 15.65303527 0.3125 12.25 C0.04050781 11.22390625 -0.23148438 10.1978125 -0.51171875 9.140625 C-1.0316482 5.79643877 -0.73272925 3.28498751 0 0 Z " fill="#B4B3B3" transform="translate(44,238)"/>
<path d="M0 0 C0.66 0 1.32 0 2 0 C1.67 1.98 1.34 3.96 1 6 C6.94 6 12.88 6 19 6 C19 6.33 19 6.66 19 7 C16.77100213 7.16890918 14.54179338 7.33503687 12.3125 7.5 C10.45044922 7.63921875 10.45044922 7.63921875 8.55078125 7.78125 C5.68500671 7.95779937 2.86900043 8.04388528 0 8 C-0.79953138 4.71303767 -1.09658936 3.28976808 0 0 Z " fill="#C0BFBF" transform="translate(116,105)"/>
<path d="M0 0 C0.66 0.33 1.32 0.66 2 1 C2.10331031 8.42686315 1.99862699 15.63512596 1 23 C0.67 23 0.34 23 0 23 C-1.33257403 7.25512528 -1.33257403 7.25512528 0 0 Z " fill="#AEABAC" transform="translate(402,210)"/>
<path d="M0 0 C0.99 0.33 1.98 0.66 3 1 C3.03738281 1.59167969 3.07476563 2.18335938 3.11328125 2.79296875 C3.51868108 7.66571569 4.14280897 10.90055199 7 15 C7 15.66 7 16.32 7 17 C3.5076533 15.83588443 2.82043738 15.12674546 1 12 C0.48828125 8.984375 0.48828125 8.984375 0.3125 5.75 C0.24675781 4.67234375 0.18101562 3.5946875 0.11328125 2.484375 C0.07589844 1.66453125 0.03851562 0.8446875 0 0 Z " fill="#ADACAD" transform="translate(625,143)"/>
<path d="M0 0 C1.2065625 0.0309375 1.2065625 0.0309375 2.4375 0.0625 C1.0625 1.5625 1.0625 1.5625 -0.5625 3.0625 C-1.2225 3.0625 -1.8825 3.0625 -2.5625 3.0625 C-4.05390021 6.68447194 -5.3499262 10.33816618 -6.5625 14.0625 C-6.8925 14.0625 -7.2225 14.0625 -7.5625 14.0625 C-8.02022527 8.34093418 -7.10284087 5.56838838 -3.5625 1.0625 C-2.5625 0.0625 -2.5625 0.0625 0 0 Z " fill="#9C9C9B" transform="translate(343.5625,129.9375)"/>
<path d="M0 0 C0.33 0.66 0.66 1.32 1 2 C0.67 2.66 0.34 3.32 0 4 C-0.66 4 -1.32 4 -2 4 C-2.268125 5.11375 -2.53625 6.2275 -2.8125 7.375 C-4 11 -4 11 -7 13 C-6.67 9.04 -6.34 5.08 -6 1 C-4 2 -4 2 -3 3 C-2.01 2.01 -1.02 1.02 0 0 Z " fill="#DAD7D7" transform="translate(213,113)"/>
<path d="M0 0 C3.20718682 1.64941037 5.37752731 3.30217814 7.5625 6.125 C9.67893857 9.09200379 9.67893857 9.09200379 12.3125 9.875 C12.869375 9.91625 13.42625 9.9575 14 10 C14 10.66 14 11.32 14 12 C8.93993301 10.67474436 5.74112373 8.65609819 2 5 C0.625 2.1875 0.625 2.1875 0 0 Z " fill="#C1BFBF" transform="translate(519,269)"/>
<path d="M0 0 C0.33 0 0.66 0 1 0 C1.3690205 13.6332574 1.3690205 13.6332574 -1 20 C-1.33 20 -1.66 20 -2 20 C-2.0544452 17.79194476 -2.09299283 15.58349446 -2.125 13.375 C-2.14820313 12.14523438 -2.17140625 10.91546875 -2.1953125 9.6484375 C-2.0030428 6.05683959 -1.30258556 3.33338825 0 0 Z " fill="#DFDEDF" transform="translate(335,146)"/>
<path d="M0 0 C-0.556875 0.268125 -1.11375 0.53625 -1.6875 0.8125 C-2.8321875 1.4003125 -2.8321875 1.4003125 -4 2 C-5.299375 2.6496875 -5.299375 2.6496875 -6.625 3.3125 C-9.4059336 5.28842651 -10.04254782 6.77947903 -11 10 C-11.66 10 -12.32 10 -13 10 C-12.125 5.25 -12.125 5.25 -11 3 C-10.34 3 -9.68 3 -9 3 C-9 2.34 -9 1.68 -9 1 C-5.8035914 -0.06546953 -3.34252724 -0.07427838 0 0 Z " fill="#A9A9A8" transform="translate(639,131)"/>
<path d="M0 0 C0 1.66666667 0 3.33333333 0 5 C-3.46153846 8 -3.46153846 8 -6 8 C-6.33 9.32 -6.66 10.64 -7 12 C-7.66 12 -8.32 12 -9 12 C-8.45015228 8.12488273 -6.72444669 6.40423494 -3.9375 3.75 C-3.20402344 3.04359375 -2.47054687 2.3371875 -1.71484375 1.609375 C-1.14894531 1.07828125 -0.58304688 0.5471875 0 0 Z " fill="#C8C7C8" transform="translate(60,47)"/>
<path d="M0 0 C0.99 0.33 1.98 0.66 3 1 C3.36504603 2.58086048 3.71660506 4.16483907 4.0625 5.75 C4.25972656 6.63171875 4.45695313 7.5134375 4.66015625 8.421875 C4.99825872 10.98679028 4.81158635 12.57091639 4 15 C1.94637945 9.91059256 0.56820748 5.45479185 0 0 Z " fill="#BEBEBD" transform="translate(577,248)"/>
<path d="M0 0 C0.33 0 0.66 0 1 0 C1.37634203 6.80203375 0.77471079 11.75690073 -2 18 C-2.66 18 -3.32 18 -4 18 C-3.69255859 16.93072266 -3.69255859 16.93072266 -3.37890625 15.83984375 C-1.89379353 10.56023251 -0.60587654 5.45288884 0 0 Z " fill="#BEBEBE" transform="translate(361,231)"/>
<path d="M0 0 C0.75539063 0.02578125 1.51078125 0.0515625 2.2890625 0.078125 C3.07925781 0.10390625 3.86945313 0.1296875 4.68359375 0.15625 C7.15501314 0.34669212 9.51294187 0.70848097 11.9140625 1.328125 C11.9140625 1.658125 11.9140625 1.988125 11.9140625 2.328125 C3.4990625 2.823125 3.4990625 2.823125 -5.0859375 3.328125 C-2.0859375 0.328125 -2.0859375 0.328125 0 0 Z " fill="#B0B0AF" transform="translate(473.0859375,145.671875)"/>
<path d="M0 0 C2 1 2 1 3.125 3.5 C4.1889199 7.7556796 4.17434209 11.64144777 4 16 C3.67 16 3.34 16 3 16 C2.86722656 15.38511719 2.73445313 14.77023438 2.59765625 14.13671875 C2.42105469 13.32847656 2.24445313 12.52023438 2.0625 11.6875 C1.88847656 10.88699219 1.71445312 10.08648437 1.53515625 9.26171875 C1.00113841 6.854599 1.00113841 6.854599 0 4 C0 2.68 0 1.36 0 0 Z " fill="#D7D7D5" transform="translate(273,119)"/>
<path d="M0 0 C0.66 0 1.32 0 2 0 C2.80967438 2.91482778 3.21845993 4.46113217 2.0625 7.3125 C1.711875 7.869375 1.36125 8.42625 1 9 C-1.64 9 -4.28 9 -7 9 C-7 8.67 -7 8.34 -7 8 C-4.69 8 -2.38 8 0 8 C0 5.36 0 2.72 0 0 Z " fill="#CAC7C8" transform="translate(277,272)"/>
<path d="M0 0 C-1 3 -1 3 -2.77734375 3.984375 C-3.84662109 4.36335938 -3.84662109 4.36335938 -4.9375 4.75 C-6.00291016 5.14445312 -6.00291016 5.14445312 -7.08984375 5.546875 C-9 6 -9 6 -11 5 C-2.29032258 0 -2.29032258 0 0 0 Z " fill="#B3B3B3" transform="translate(618,104)"/>
<path d="M0 0 C0.66 0 1.32 0 2 0 C2.33 0.99 2.66 1.98 3 3 C6.3 3.33 9.6 3.66 13 4 C13 4.33 13 4.66 13 5 C11.02145742 5.19397476 9.0421352 5.38001321 7.0625 5.5625 C5.40927734 5.71912109 5.40927734 5.71912109 3.72265625 5.87890625 C2.37494141 5.93884766 2.37494141 5.93884766 1 6 C0 5 0 5 -0.0625 2.4375 C-0.041875 1.633125 -0.02125 0.82875 0 0 Z " fill="#ECECEA" transform="translate(552,100)"/>
<path d="M0 0 C1.03719328 3.21456356 0.94068337 5.40925583 0.1875 8.6875 C0.01605469 9.47511719 -0.15539063 10.26273438 -0.33203125 11.07421875 C-1 13 -1 13 -3 14 C-2.48594831 9.03083364 -1.76615118 4.70973649 0 0 Z " fill="#807F7F" transform="translate(46,65)"/>
<path d="M0 0 C0.33 0 0.66 0 1 0 C1.1799928 5.21979128 0.97094808 9.07262981 -1 14 C-1.33 14 -1.66 14 -2 14 C-2.21192221 8.80790596 -1.5912689 4.873261 0 0 Z " fill="#AAA8AA" transform="translate(401,233)"/>
<path d="M0 0 C0.66 0.33 1.32 0.66 2 1 C1.01 1.33 0.02 1.66 -1 2 C-1 2.66 -1 3.32 -1 4 C-3.5 5.625 -3.5 5.625 -6 7 C-6.66 6.34 -7.32 5.68 -8 5 C-5.31158141 2.74754119 -3.35358125 1.11786042 0 0 Z " fill="#B5B5B4" transform="translate(326,103)"/>
<path d="M0 0 C0.33 0 0.66 0 1 0 C2.28571429 8.42857143 2.28571429 8.42857143 1 13 C0.34 13 -0.32 13 -1 13 C-0.67 8.71 -0.34 4.42 0 0 Z " fill="#EDE6E7" transform="translate(334,160)"/>
<path d="M0 0 C6.93 0.495 6.93 0.495 14 1 C14 1.33 14 1.66 14 2 C8.06 2.495 8.06 2.495 2 3 C1.34 2.01 0.68 1.02 0 0 Z " fill="#C6C6C1" transform="translate(594,224)"/>
<path d="M0 0 C2.96175123 0.61277612 4.38058783 1.25372522 7 3 C7 3.99 7 4.98 7 6 C3.63279613 4.60667426 2.0140476 3.0210714 0 0 Z " fill="#B4B4B4" transform="translate(63,153)"/>
<path d="M0 0 C2.31509559 3.47264338 2.62582455 5.88407008 3 10 C2.67 10.66 2.34 11.32 2 12 C0.70756464 7.8803623 -0.26252625 4.33168317 0 0 Z " fill="#CCCCCB" transform="translate(360,142)"/>
<path d="M0 0 C3.26460973 1.80412643 4.88929795 2.83394693 7 6 C5.35 6.33 3.7 6.66 2 7 C2 6.01 2 5.02 2 4 C1.05021103 1.84971696 1.05021103 1.84971696 0 0 Z " fill="#DADAD9" transform="translate(103,134)"/>
<path d="M0 0 C0.99 0.33 1.98 0.66 3 1 C0.69 3.64 -1.62 6.28 -4 9 C-4 5.00095031 -2.27413033 3.19799578 0 0 Z " fill="#DFDFDE" transform="translate(306,118)"/>
<path d="M0 0 C2.39223697 2.39223697 2.6758631 3.67759676 3 7 C2.34 7.99 1.68 8.98 1 10 C-0.60725635 6.78548731 -0.05748185 3.56387464 0 0 Z " fill="#BAB8B8" transform="translate(517,258)"/>
<path d="M0 0 C2.78637633 4.1795645 1.79562512 6.14668677 1 11 C0.67 11 0.34 11 0 11 C-1.125 3.375 -1.125 3.375 0 0 Z " fill="#848383" transform="translate(44,238)"/>
<path d="M0 0 C2.07703891 4.15407782 2.31513157 4.8354167 1 9 C0.34 9.66 -0.32 10.32 -1 11 C-0.67 7.37 -0.34 3.74 0 0 Z " fill="#6C6C6C" transform="translate(44,211)"/>
<path d="M0 0 C0.66 0.33 1.32 0.66 2 1 C1.67 2.32 1.34 3.64 1 5 C-1.97 4.505 -1.97 4.505 -5 4 C-4.360625 3.71125 -3.72125 3.4225 -3.0625 3.125 C-0.84793921 2.17176549 -0.84793921 2.17176549 0 0 Z " fill="#EAEAEA" transform="translate(517,101)"/>
</svg>
